<svg width="1280" height="720" xmlns="http://www.w3.org/2000/svg" xmlns:xlink="http://www.w3.org/1999/xlink" overflow="hidden"><defs><filter id="fx0" x="-10%" y="-10%" width="120%" height="120%" filterUnits="userSpaceOnUse" primitiveUnits="userSpaceOnUse"><feComponentTransfer color-interpolation-filters="sRGB"><feFuncR type="discrete" tableValues="0 0"/><feFuncG type="discrete" tableValues="0 0"/><feFuncB type="discrete" tableValues="0 0"/><feFuncA type="linear" slope="0.4" intercept="0"/></feComponentTransfer><feGaussianBlur stdDeviation="1.77778 1.77778"/></filter><clipPath id="clip1"><path d="M556 151C418.481 151 307 215.695 307 295.5 307 375.305 418.481 440 556 440 693.519 440 805 375.305 805 295.5 805 215.695 693.519 151 556 151ZM1.90735e-05 1.07288e-05 1280 1.07288e-05 1280 720 1.90735e-05 720Z" fill-rule="evenodd" clip-rule="evenodd"/></clipPath></defs><g><rect x="0" y="0" width="1280" height="720" fill="#FFFFFF"/><g clip-path="url(#clip1)"><g filter="url(#fx0)" transform="translate(299 139)"><g><path d="M8 152.5C8 72.6949 119.481 8 257 8 394.519 8 506 72.6949 506 152.5 506 232.305 394.519 297 257 297 119.481 297 8 232.305 8 152.5Z" stroke="#000000" stroke-width="2" stroke-miterlimit="8" fill="#FFFFFF" fill-rule="evenodd"/></g></g></g><path d="M307 295.5C307 215.695 418.481 151 556 151 693.519 151 805 215.695 805 295.5 805 375.305 693.519 440 556 440 418.481 440 307 375.305 307 295.5Z" stroke="#000000" stroke-width="2" stroke-miterlimit="8" fill="#FFFFFF" fill-rule="evenodd"/><text font-family="Colonna MT,Colonna MT_MSFontService,sans-serif" font-weight="400" font-size="447" transform="translate(349.523 400)">S</text><text font-family="Aptos,Aptos_MSFontService,sans-serif" font-weight="400" font-size="65" transform="translate(549.523 400)">olving</text><text font-family="FZShuTi,FZShuTi_MSFontService,sans-serif" font-weight="400" font-stretch="semi-condensed" font-size="88" transform="translate(546.084 239)">博優</text><text font-family="FZShuTi,FZShuTi_MSFontService,sans-serif" font-weight="400" font-stretch="semi-condensed" font-size="88" transform="translate(546.084 345)">旮旯</text></g></svg>