<svg xmlns:xlink="http://www.w3.org/1999/xlink" height="804" xmlns:ev="http://www.w3.org/2001/xml-events" width="1132" xmlns="http://www.w3.org/2000/svg" viewBox="0 0 1132 804"><defs/><g transform="translate(5.5,5.5)" id="page1"><rect x="0" height="794" fill="#ffffff" y="0" width="1123"/><path transform="translate(269.291339,231.496063)" fill="#ffffff" stroke="#5967c9" id="shape1" stroke-opacity="0.87" d="M.0,.0L448.8,.0L448.8,311.8L.0,311.8L.0,.0z" fill-rule="nonzero" stroke-width="1"/><path transform="translate(277.362205,238.513515)" fill="#ffffff" stroke="#000000" id="shape2" d="M.0,149.3C.0,66.8,97.3,.0,217.3,.0C337.3,.0,434.6,66.8,434.6,149.3C434.6,231.7,337.3,298.6,217.3,298.6C97.3,298.6,.0,231.7,.0,149.3z" fill-rule="evenodd" stroke-width="2"/><g transform="translate(303.173228,169.391076)" id="shape3"><text xml:space="preserve" style="font-family:Colonna MT,PingFang SC,Mircrosoft YaHei,Arial;font-size:502.88pt;font-weight:bold"><tspan x="4.0" y="323.0" style="font-size:335.25pt">S</tspan></text></g><g transform="translate(474.858268,409.448819)" id="shape4"><text xml:space="preserve" style="font-family:Arial Rounded MT Bold,PingFang SC,Mircrosoft YaHei,Arial;font-size:73.13pt;font-weight:bold"><tspan x="4.0" y="66.0" style="font-size:48.75pt">olving</tspan></text></g><g transform="translate(474.858268,248.669291)" id="shape5"><text xml:space="preserve" style="font-family:Arial,PingFang SC,Mircrosoft YaHei,Arial;font-size:15.00pt"><tspan x="4.0" y="97.0" style="font-family:Alibaba PuHuiTi 3.0,PingFang SC,Mircrosoft YaHei,Arial;font-size:66.00pt;font-weight:bold">博優</tspan></text></g><g transform="translate(514.960630,324.606299)" id="shape6"><text xml:space="preserve" style="font-family:Arial,PingFang SC,Mircrosoft YaHei,Arial;font-size:15.00pt"><tspan x="4.0" y="97.0" style="font-family:Alibaba PuHuiTi 3.0,PingFang SC,Mircrosoft YaHei,Arial;font-size:66.00pt;font-weight:bold">旮旯</tspan></text></g></g></svg>