<svg width="1280" height="720" xmlns="http://www.w3.org/2000/svg" xmlns:xlink="http://www.w3.org/1999/xlink" overflow="hidden"><g><rect x="0" y="0" width="1280" height="720" fill="#FFFFFF"/><text font-family="Castellar,Castellar_MSFontService,sans-serif" font-weight="400" font-size="207" transform="matrix(0.71179 -0.702393 0.702393 0.71179 404.641 412)">S</text><path d="M387.315 311.48 365.342 130.745 366.463 130.608 388.436 311.344Z" stroke="#042433" stroke-width="2" stroke-miterlimit="8" fill="#156082" fill-rule="evenodd"/><rect x="19.5495" y="2.59844" width="108.388" height="1.59819" stroke="#042433" stroke-width="2" stroke-miterlimit="8" fill="#156082" transform="matrix(0.195752 -0.980653 -0.980653 -0.195752 389.291 337.48)"/><rect x="21.3406" y="1.912" width="118.319" height="1.176" stroke="#042433" stroke-width="2" stroke-miterlimit="8" fill="#156082" transform="matrix(-1.83697e-16 -1 -1 1.83697e-16 367 271)"/><rect x="34.198" y="1.912" width="189.604" height="1.176" stroke="#042433" stroke-width="2" stroke-miterlimit="8" fill="#156082" transform="matrix(-1.83697e-16 -1 -1 1.83697e-16 414 434)"/><path d="M531.496 214.343 707.496 214.343 707.496 321.343 531.496 321.343Z" fill="#F9FAFB" fill-rule="evenodd"/><text font-family="DengXian,DengXian_MSFontService,sans-serif" font-weight="400" font-size="88" transform="translate(443.496 297)">王</text><text fill="#1F2937" font-family="DengXian,DengXian_MSFontService,sans-serif" font-weight="400" font-size="88" transform="translate(531.496 297)">賊臣</text><rect x="53.8154" y="1.912" width="298.369" height="1.176" stroke="#042433" stroke-width="2" stroke-miterlimit="8" fill="#156082" transform="matrix(-1 1.22465e-16 1.22465e-16 1 756 310)"/><text font-family="Aptos,Aptos_MSFontService,sans-serif" font-weight="400" font-size="24" transform="translate(458.098 335)">Monarch Traitor Subject</text></g></svg>