<svg width="1280" height="720" xmlns="http://www.w3.org/2000/svg" xmlns:xlink="http://www.w3.org/1999/xlink" overflow="hidden"><defs><filter id="fx0" x="-10%" y="-10%" width="120%" height="120%" filterUnits="userSpaceOnUse" primitiveUnits="userSpaceOnUse"><feComponentTransfer color-interpolation-filters="sRGB"><feFuncR type="discrete" tableValues="0 0"/><feFuncG type="discrete" tableValues="0 0"/><feFuncB type="discrete" tableValues="0 0"/><feFuncA type="linear" slope="0.4" intercept="0"/></feComponentTransfer><feGaussianBlur stdDeviation="2.22222 2.22222"/></filter><clipPath id="clip1"><path d="M503.5 94C379.512 94 279 166.754 279 256.5 279 346.246 379.512 419 503.5 419 627.488 419 728 346.246 728 256.5 728 166.754 627.488 94 503.5 94ZM1.90735e-05 1.07288e-05 1280 1.07288e-05 1280 720 1.90735e-05 720Z" fill-rule="evenodd" clip-rule="evenodd"/></clipPath></defs><g><rect x="0" y="0" width="1280" height="720" fill="#FFFFFF"/><g clip-path="url(#clip1)"><g filter="url(#fx0)" transform="translate(265 82)"><g><path d="M9.51001 174.5C9.51001 82.9588 112.032 8.75 238.5 8.75 364.968 8.75 467.49 82.9588 467.49 174.5 467.49 266.041 364.968 340.25 238.5 340.25 112.032 340.25 9.51001 266.041 9.51001 174.5Z" stroke="#000000" stroke-width="2" stroke-miterlimit="8" fill="#FFFFFF" fill-rule="evenodd"/></g></g></g><path d="M279 256.5C279 166.754 379.512 94 503.5 94 627.488 94 728 166.754 728 256.5 728 346.246 627.488 419 503.5 419 379.512 419 279 346.246 279 256.5Z" stroke="#000000" stroke-width="2" stroke-miterlimit="8" fill="#FFFFFF" fill-rule="evenodd"/><text font-family="Castellar,Castellar_MSFontService,sans-serif" font-weight="400" font-size="207" transform="matrix(0.71179 -0.702393 0.702393 0.71179 404.641 412)">S</text><path d="M387.315 311.48 365.342 130.745 366.463 130.608 388.436 311.344Z" stroke="#042433" stroke-width="2" stroke-miterlimit="8" fill="#156082" fill-rule="evenodd"/><rect x="19.5495" y="2.59844" width="108.388" height="1.59819" stroke="#042433" stroke-width="2" stroke-miterlimit="8" fill="#156082" transform="matrix(0.195752 -0.980653 -0.980653 -0.195752 389.291 337.48)"/><rect x="21.3406" y="1.912" width="118.319" height="1.176" stroke="#042433" stroke-width="2" stroke-miterlimit="8" fill="#156082" transform="matrix(-1.83697e-16 -1 -1 1.83697e-16 367 271)"/><rect x="33.9329" y="1.912" width="188.134" height="1.176" stroke="#042433" stroke-width="2" stroke-miterlimit="8" fill="#156082" transform="matrix(-1.83697e-16 -1 -1 1.83697e-16 414 432)"/><path d="M531.496 214.343 707.496 214.343 707.496 321.343 531.496 321.343Z" fill="#F9FAFB" fill-rule="evenodd"/><text font-family="DengXian,DengXian_MSFontService,sans-serif" font-weight="400" font-size="88" transform="translate(443.496 297)">王</text><text fill="#1F2937" font-family="DengXian,DengXian_MSFontService,sans-serif" font-weight="400" font-size="88" transform="translate(531.496 297)">賊臣</text><rect x="34.7282" y="1.5296" width="192.544" height="0.940796" stroke="#042433" stroke-width="2" stroke-miterlimit="8" fill="#156082" transform="matrix(-1 1.22465e-16 1.22465e-16 1 635 401)"/><text font-family="Aptos,Aptos_MSFontService,sans-serif" font-weight="400" font-size="24" transform="translate(453.184 335)">Monarch Traitor Subject</text><rect x="50.7668" y="2.2944" width="281.466" height="1.41119" stroke="#042433" stroke-width="2" stroke-miterlimit="8" fill="#156082" transform="matrix(-1 1.22465e-16 1.22465e-16 1 696 127)"/><rect x="55.5386" y="1.5296" width="307.923" height="0.940796" stroke="#042433" stroke-width="2" stroke-miterlimit="8" fill="#156082" transform="matrix(-1 1.22465e-16 1.22465e-16 1 774 209)"/></g></svg>