<svg xmlns:xlink="http://www.w3.org/1999/xlink" height="804" xmlns:ev="http://www.w3.org/2001/xml-events" width="1132" xmlns="http://www.w3.org/2000/svg" viewBox="0 0 1132 804"><defs/><g transform="translate(5.5,5.5)" id="page1"><rect x="0" height="794" fill="#ffffff" y="0" width="1123"/><g transform="translate(-6.929134,-1.889764)" id="group1"><path transform="translate(269.291339,80.314961)" fill="#ffffff" id="shape2" d="M.0,.0L472.4,.0L472.4,354.3L.0,354.3L.0,.0z" fill-rule="nonzero"/><path transform="translate(274.510010,90.750000)" fill="#ffffff" stroke="#000000" id="shape3" d="M.0,165.8C.0,74.2,102.5,.0,229.0,.0C355.5,.0,458.0,74.2,458.0,165.8C458.0,257.3,355.5,331.5,229.0,331.5C102.5,331.5,.0,257.3,.0,165.8z" fill-rule="evenodd" stroke-width="2"/><path transform="translate(279.000000,94.000000)" fill="#ffffff" fill-opacity="0.48" stroke="#000000" id="shape4" d="M.0,162.5C.0,72.8,100.5,.0,224.5,.0C348.5,.0,449.0,72.8,449.0,162.5C449.0,252.2,348.5,325.0,224.5,325.0C100.5,325.0,.0,252.2,.0,162.5z" fill-rule="evenodd" stroke-width="6.6666665077209473"/><g transform="matrix(0.711790,-0.702393,0.702393,0.711790,263.566929,273.519305)" id="shape5"><text xml:space="preserve" style="font-family:Arial,PingFang SC,Mircrosoft YaHei,Arial;font-size:15.00pt"><tspan x="4.0" y="196.0" style="font-family:Castellar,PingFang SC,Mircrosoft YaHei,Arial;font-size:155.25pt;font-weight:bold">S</tspan></text></g><path transform="translate(365.342000,130.608000)" fill="#156082" stroke="#042433" id="shape6" d="M22.0,180.9L.0,.1L1.1,.0L23.1,180.7L22.0,180.9z" fill-rule="evenodd" stroke-width="2"/><path transform="matrix(0.195752,-0.980653,-0.980653,-0.195752,390.539682,317.793959)" fill="#156082" stroke="#042433" id="shape7" d="M.0,.0L108.4,.0L108.4,1.5L.0,1.5L.0,.0z" fill-rule="nonzero" stroke-width="1.9999991655349731"/><path transform="matrix(0.000000,-1.000000,-1.000000,0.000000,365.088000,249.659400)" fill="#156082" stroke="#042433" id="shape8" d="M.0,.0L118.3,.0L118.3,1.2L.0,1.2L.0,.0z" fill-rule="nonzero" stroke-width="2"/><path transform="matrix(0.000000,-1.000000,-1.000000,0.000000,412.088000,398.067100)" fill="#156082" stroke="#042433" id="shape9" d="M.0,.0L188.1,.0L188.1,1.2L.0,1.2L.0,.0z" fill-rule="nonzero" stroke-width="2"/><path transform="translate(531.496000,216.343000)" fill="#f9fafb" id="shape10" d="M.0,.0L176.0,.0L176.0,107.0L.0,107.0L.0,.0z" fill-rule="evenodd"/><g transform="translate(447.385890,212.763780)" id="shape11"><text xml:space="preserve" style="font-family:Arial,PingFang SC,Mircrosoft YaHei,Arial;font-size:15.00pt"><tspan x="4.0" y="75.0" style="font-family:等线,PingFang SC,Mircrosoft YaHei,Arial;font-size:66.00pt;font-weight:bold">王</tspan></text></g><g transform="translate(536.062992,209.251969)" id="shape12"><text xml:space="preserve" style="font-family:等线,PingFang SC,Mircrosoft YaHei,Arial;font-size:99.00pt;font-weight:bold"><tspan x="4.0" y="75.0" style="fill:#1f2937;font-size:66.00pt">賊臣</tspan></text></g><path transform="matrix(-1.000000,0.000000,0.000000,1.000000,600.271800,402.529600)" fill="#156082" stroke="#042433" id="shape13" d="M.0,.0L192.5,.0L192.5,.9L.0,.0z" fill-rule="nonzero" stroke-width="4.3333334922790527"/><g transform="translate(426.559055,292.200787)" id="shape14"><text xml:space="preserve" style="font-family:MS Shell Dlg 2,PingFang SC,Mircrosoft YaHei,Arial;font-size:24.00pt;font-weight:bold"><tspan x="21.5" y="27.0" style="font-size:16.00pt">Monarch Traitor Subject</tspan></text></g><path transform="matrix(-1.000000,0.000000,0.000000,1.000000,645.233200,129.294400)" fill="#156082" stroke="#042433" id="shape15" d="M.0,.0L281.5,.0L281.5,1.4L.0,1.4L.0,.0z" fill-rule="nonzero" stroke-width="3.3333332538604736"/><path transform="matrix(-1.000000,0.000000,0.000000,1.000000,718.461400,210.529600)" fill="#156082" stroke="#000000" id="shape16" d="M.0,.0L307.9,.0L307.9,.9L.0,.0z" fill-rule="nonzero" stroke-width="5"/></g></g></svg>